<svg width="64" height="64" viewBox="0 0 64 64" fill="none" xmlns="http://www.w3.org/2000/svg">
<circle cx="32" cy="32" r="32" fill="#3FA7E1" fill-opacity="0.1"/>
<g clip-path="url(#clip0_5368_20815)">
<path d="M32 17C23.72 17 17 23.72 17 32C17 40.28 23.72 47 32 47C40.28 47 47 40.28 47 32C47 23.72 40.28 17 32 17ZM32 44C25.385 44 20 38.615 20 32C20 25.385 25.385 20 32 20C38.615 20 44 25.385 44 32C44 38.615 38.615 44 32 44ZM37.82 26.435L29 35.255L26.18 32.435C25.595 31.85 24.65 31.85 24.065 32.435C23.48 33.02 23.48 33.965 24.065 34.55L27.95 38.435C28.535 39.02 29.48 39.02 30.065 38.435L39.95 28.55C40.535 27.965 40.535 27.02 39.95 26.435C39.365 25.85 38.405 25.85 37.82 26.435V26.435Z" fill="#3FA7E1"/>
</g>
<defs>
<clipPath id="clip0_5368_20815">
<rect width="36" height="36" fill="white" transform="translate(14 14)"/>
</clipPath>
</defs>
</svg>
