<svg width="159" height="46" viewBox="0 0 159 46" fill="none" xmlns="http://www.w3.org/2000/svg">
<g opacity="0.3">
<path fill-rule="evenodd" clip-rule="evenodd" d="M23 43.125C34.1147 43.125 43.125 34.1147 43.125 23C43.125 11.8853 34.1147 2.875 23 2.875C11.8853 2.875 2.875 11.8853 2.875 23C2.875 34.1147 11.8853 43.125 23 43.125ZM23 44.5625C34.9086 44.5625 44.5625 34.9086 44.5625 23C44.5625 11.0914 34.9086 1.4375 23 1.4375C11.0914 1.4375 1.4375 11.0914 1.4375 23C1.4375 34.9086 11.0914 44.5625 23 44.5625Z" fill="#3FA7E1"/>
<path fill-rule="evenodd" clip-rule="evenodd" d="M14.5141 28.5856C14.5141 28.9389 14.8004 29.2252 15.1537 29.2252C15.5069 29.2252 15.7933 28.9389 15.7933 28.5856L15.7933 27.3065C16.853 27.3065 17.712 26.4474 17.712 25.3877L17.712 15.4709C17.712 14.4112 16.853 13.5522 15.7933 13.5522L15.7933 12.273C15.7933 11.9198 15.5069 11.6334 15.1537 11.6334C14.8004 11.6334 14.5141 11.9198 14.5141 12.273L14.5141 13.5522C13.4544 13.5522 12.5953 14.4112 12.5953 15.4709L12.5953 25.3877C12.5953 26.4474 13.4544 27.3065 14.5141 27.3065L14.5141 28.5856ZM22.8287 35.4565C22.4755 35.4565 22.1891 35.1701 22.1891 34.8169L22.1891 33.5377C21.1294 33.5377 20.2704 32.6787 20.2704 31.619L20.2704 21.0689C20.2704 20.0092 21.1294 19.1501 22.1891 19.1501L22.1891 17.871C22.1891 17.5177 22.4755 17.2314 22.8287 17.2314C23.182 17.2314 23.4683 17.5177 23.4683 17.871L23.4683 19.1501C24.528 19.1501 25.3871 20.0092 25.3871 21.0689L25.3871 31.619C25.3871 32.6787 24.528 33.5377 23.4683 33.5377L23.4683 34.8169C23.4683 35.1701 23.182 35.4565 22.8287 35.4565ZM24.1079 31.619C24.1079 31.9722 23.8216 32.2585 23.4683 32.2585L22.1891 32.2585C21.8359 32.2585 21.5496 31.9722 21.5496 31.619L21.5496 21.0689C21.5496 20.7157 21.8359 20.4293 22.1891 20.4293L23.4683 20.4293C23.8216 20.4293 24.1079 20.7157 24.1079 21.0689L24.1079 31.619Z" fill="#3FA7E1"/>
<path fill-rule="evenodd" clip-rule="evenodd" d="M31.1439 11.152C31.1439 10.7988 30.8575 10.5125 30.5043 10.5125C30.151 10.5125 29.8647 10.7988 29.8647 11.152L29.8647 12.4312C28.805 12.4312 27.9459 13.2903 27.9459 14.35L27.9459 33.5376C27.9459 34.5973 28.805 35.4564 29.8647 35.4564L29.8647 36.7356C29.8647 37.0888 30.151 37.3752 30.5043 37.3752C30.8575 37.3752 31.1439 37.0888 31.1439 36.7356L31.1439 35.4564C32.2036 35.4564 33.0626 34.5973 33.0626 33.5376L33.0626 14.35C33.0626 13.2903 32.2036 12.4312 31.1439 12.4312L31.1439 11.152Z" fill="#3FA7E1"/>
<path d="M59.1003 30.1875H56.0541V18.3562H52.1529V15.8209H63.0015V18.3562H59.1003V30.1875Z" fill="#3FA7E1"/>
<path d="M63.6013 26.021V23.5643H68.8783V26.021H63.6013Z" fill="#3FA7E1"/>
<path d="M73.9394 22.5817H74.9417C75.8785 22.5817 76.5795 22.3982 77.0446 22.0314C77.5097 21.658 77.7423 21.1175 77.7423 20.41C77.7423 19.6959 77.5458 19.1685 77.1527 18.8279C76.7662 18.4872 76.1569 18.3169 75.3249 18.3169H73.9394V22.5817ZM80.818 20.3019C80.818 21.8479 80.3333 23.0304 79.3637 23.8493C78.4007 24.6682 77.0282 25.0776 75.2463 25.0776H73.9394V30.1875H70.8931V15.8209H75.4822C77.2248 15.8209 78.5481 16.1976 79.4521 16.951C80.3627 17.6978 80.818 18.8148 80.818 20.3019Z" fill="#3FA7E1"/>
<path d="M85.889 30.1875H82.8919V14.8972H85.889V30.1875Z" fill="#3FA7E1"/>
<path d="M95.6178 30.1875L95.038 28.6938H94.9594C94.455 29.3293 93.9342 29.7715 93.397 30.0204C92.8663 30.2628 92.1719 30.384 91.3137 30.384C90.259 30.384 89.427 30.0827 88.8177 29.48C88.215 28.8773 87.9137 28.0191 87.9137 26.9054C87.9137 25.7393 88.3199 24.8811 89.1322 24.3308C89.9511 23.774 91.1827 23.4661 92.827 23.4071L94.7334 23.3481V22.8666C94.7334 21.753 94.1634 21.1961 93.0235 21.1961C92.1457 21.1961 91.1139 21.4614 89.9282 21.9921L88.9357 19.9678C90.2 19.3061 91.602 18.9753 93.1415 18.9753C94.6155 18.9753 95.7455 19.2963 96.5317 19.9383C97.3178 20.5803 97.7109 21.5564 97.7109 22.8666V30.1875H95.6178ZM94.7334 25.0973L93.5738 25.1366C92.7025 25.1628 92.054 25.32 91.6282 25.6083C91.2023 25.8965 90.9894 26.3354 90.9894 26.925C90.9894 27.7701 91.4742 28.1927 92.4438 28.1927C93.1382 28.1927 93.6918 27.9929 94.1045 27.5933C94.5238 27.1936 94.7334 26.663 94.7334 26.0013V25.0973Z" fill="#3FA7E1"/>
<path d="M105.032 27.9962C105.556 27.9962 106.185 27.8815 106.919 27.6522V29.8829C106.172 30.217 105.255 30.384 104.167 30.384C102.969 30.384 102.094 30.0827 101.544 29.48C101 28.8707 100.728 27.9601 100.728 26.7482V21.4516H99.2934V20.184L100.944 19.1816L101.809 16.8625H103.725V19.2013H106.801V21.4516H103.725V26.7482C103.725 27.174 103.843 27.4884 104.079 27.6915C104.321 27.8946 104.639 27.9962 105.032 27.9962Z" fill="#3FA7E1"/>
<path d="M114.82 21.4516H112.226V30.1875H109.228V21.4516H107.578V20.0071L109.228 19.2013V18.3955C109.228 17.1442 109.536 16.2304 110.152 15.6539C110.768 15.0774 111.754 14.7891 113.11 14.7891C114.145 14.7891 115.066 14.9431 115.871 15.251L115.105 17.4521C114.502 17.2622 113.945 17.1672 113.434 17.1672C113.008 17.1672 112.701 17.2949 112.511 17.5504C112.321 17.7994 112.226 18.1204 112.226 18.5134V19.2013H114.82V21.4516Z" fill="#3FA7E1"/>
<path d="M118.535 24.6747C118.535 25.7622 118.712 26.5844 119.065 27.1412C119.426 27.6981 120.009 27.9765 120.815 27.9765C121.614 27.9765 122.187 27.7014 122.534 27.1511C122.888 26.5942 123.065 25.7688 123.065 24.6747C123.065 23.5873 122.888 22.7716 122.534 22.2279C122.18 21.6842 121.601 21.4123 120.795 21.4123C119.996 21.4123 119.419 21.6842 119.065 22.2279C118.712 22.7651 118.535 23.5807 118.535 24.6747ZM126.131 24.6747C126.131 26.4632 125.659 27.8619 124.716 28.8707C123.772 29.8796 122.459 30.384 120.775 30.384C119.72 30.384 118.79 30.1547 117.984 29.6962C117.179 29.231 116.56 28.5661 116.127 27.7014C115.695 26.8366 115.479 25.8277 115.479 24.6747C115.479 22.8797 115.947 21.4844 116.884 20.4886C117.821 19.4928 119.137 18.9949 120.834 18.9949C121.889 18.9949 122.819 19.2242 123.625 19.6828C124.431 20.1414 125.05 20.7998 125.482 21.658C125.915 22.5162 126.131 23.5217 126.131 24.6747Z" fill="#3FA7E1"/>
<path d="M134.336 18.9949C134.743 18.9949 135.08 19.0244 135.349 19.0834L135.123 21.8938C134.88 21.8283 134.585 21.7955 134.238 21.7955C133.282 21.7955 132.535 22.0412 131.998 22.5325C131.467 23.0239 131.202 23.7117 131.202 24.5961V30.1875H128.205V19.2013H130.475L130.917 21.0487H131.064C131.405 20.4329 131.863 19.9383 132.44 19.5649C133.023 19.1849 133.655 18.9949 134.336 18.9949Z" fill="#3FA7E1"/>
<path d="M146.777 30.1875H143.78V23.7707C143.78 22.978 143.646 22.3851 143.377 21.9921C143.115 21.5924 142.699 21.3926 142.129 21.3926C141.363 21.3926 140.806 21.6743 140.459 22.2377C140.112 22.8011 139.938 23.7281 139.938 25.0187V30.1875H136.941V19.2013H139.23L139.633 20.6065H139.8C140.095 20.1021 140.521 19.709 141.078 19.4273C141.635 19.1391 142.273 18.9949 142.994 18.9949C144.638 18.9949 145.752 19.5321 146.335 20.6065H146.6C146.895 20.0955 147.328 19.6992 147.898 19.4175C148.474 19.1358 149.123 18.9949 149.843 18.9949C151.088 18.9949 152.028 19.3159 152.664 19.9579C153.306 20.5934 153.627 21.6154 153.627 23.0239V30.1875H150.62V23.7707C150.62 22.978 150.485 22.3851 150.217 21.9921C149.955 21.5924 149.539 21.3926 148.969 21.3926C148.235 21.3926 147.685 21.6547 147.318 22.1788C146.957 22.7029 146.777 23.5349 146.777 24.6747V30.1875Z" fill="#3FA7E1"/>
</g>
</svg>
