<svg width="64" height="64" viewBox="0 0 64 64" fill="none" xmlns="http://www.w3.org/2000/svg">
<circle cx="32" cy="32" r="32" fill="#4BB9F6" fill-opacity="0.1"/>
<path fill-rule="evenodd" clip-rule="evenodd" d="M25.9712 19.2049H32.8898C33.1514 19.2049 33.3737 19.0391 33.4548 18.7837L33.6331 18.2196H35.7411C36.2512 18.2196 36.673 18.6526 36.673 19.1764V26.8463H37.8606V19.1764C37.8606 17.9794 36.9068 17 35.7411 17H23.1196C21.9539 17 21 17.9794 21 19.1764V44.8236C21 46.0206 21.9539 47 23.1196 47H35.7405C36.9062 47 37.8601 46.0206 37.8601 44.8236V38.8512H36.6724V44.8236C36.6724 45.3474 36.2507 45.7807 35.7406 45.7807L23.1196 45.7809C22.6093 45.7809 22.1878 45.3478 22.1878 44.8238V19.176C22.1878 18.652 22.6095 18.2192 23.1196 18.2192H25.2276L25.406 18.7833C25.4871 19.0387 25.7091 19.2046 25.9709 19.2046L25.9712 19.2049ZM30.6015 30.8997V34.9227C30.6015 35.0905 30.468 35.2276 30.3045 35.2276H29.983V37.3056C29.983 37.6423 29.717 37.9155 29.3891 37.9155C29.0612 37.9155 28.7952 37.6423 28.7952 37.3056V35.2276H28.4737C28.3102 35.2276 28.1767 35.0905 28.1767 34.9227L28.1771 30.8997C28.1771 30.7319 28.3107 30.5947 28.4741 30.5947H28.7956V28.5165C28.7956 28.1798 29.0616 27.9066 29.3895 27.9066C29.7174 27.9066 29.9835 28.1798 29.9835 28.5165V30.5945H30.305C30.4682 30.5947 30.6015 30.7318 30.6015 30.8996L30.6015 30.8997ZM34.7343 27.3588V31.3818C34.7343 31.5496 34.6008 31.6867 34.4374 31.6867H34.1159V33.7647C34.1159 34.1014 33.8498 34.3746 33.5219 34.3746C33.194 34.3746 32.928 34.1014 32.928 33.7647L32.9282 31.6863H32.6067C32.4433 31.6863 32.3097 31.5492 32.3097 31.3814L32.3099 27.3588C32.3099 27.191 32.4435 27.0539 32.6069 27.0539H32.9284V24.9759C32.9284 24.6392 33.1945 24.366 33.5224 24.366C33.8503 24.366 34.1163 24.6392 34.1163 24.9759V27.0539H34.4378C34.6012 27.0539 34.7343 27.191 34.7343 27.3588L34.7343 27.3588ZM38.8674 30.8997V34.9227C38.8674 35.0905 38.7338 35.2276 38.5704 35.2276H38.2489V37.3056C38.2489 37.6423 37.9829 37.9155 37.655 37.9155C37.3271 37.9155 37.061 37.6423 37.061 37.3056V35.2276H36.74C36.5765 35.2276 36.443 35.0905 36.443 34.9227L36.4432 30.8997C36.4432 30.7319 36.5768 30.5947 36.7402 30.5947H37.0613V28.5165C37.0613 28.1798 37.3273 27.9066 37.6552 27.9066C37.9831 27.9066 38.2491 28.1798 38.2491 28.5165V30.5945H38.5706C38.7338 30.5947 38.8674 30.7318 38.8674 30.8996V30.8997ZM43 27.3588V31.3818C43 31.5496 42.8664 31.6867 42.703 31.6867H42.3815V33.7647C42.3815 34.1014 42.1155 34.3746 41.7876 34.3746C41.4597 34.3746 41.1937 34.1014 41.1937 33.7647L41.1941 31.6863H40.8728C40.7094 31.6863 40.5758 31.5492 40.5758 31.3814L40.576 27.3588C40.576 27.191 40.7096 27.0539 40.873 27.0539H41.1945V24.9759C41.1945 24.6392 41.4605 24.366 41.7884 24.366C42.1163 24.366 42.3824 24.6392 42.3824 24.9759V27.0539H42.7039C42.8669 27.0539 43 27.191 43 27.3588L43 27.3588ZM29.4303 42.0868C30.1026 42.0868 30.6477 42.6465 30.6477 43.3368C30.6477 44.0271 30.1026 44.5867 29.4303 44.5867C28.7581 44.5867 28.213 44.027 28.213 43.3368C28.213 42.6463 28.7581 42.0868 29.4303 42.0868Z" fill="#3FA7E1"/>
</svg>
