<svg width="64" height="64" viewBox="0 0 64 64" fill="none" xmlns="http://www.w3.org/2000/svg">
<circle cx="32" cy="32" r="32" fill="#E85050" fill-opacity="0.1"/>
<g clip-path="url(#clip0_5368_20814)">
<path d="M34.9999 27.4999H39.3049C41.4949 27.4999 43.5049 28.9699 43.9249 31.1299C44.3899 33.5899 42.8149 35.7949 40.5949 36.3499L42.8899 38.6449C45.5449 37.2799 47.3149 34.4149 46.9399 31.1299C46.5199 27.2899 43.0549 24.4999 39.1849 24.4999H34.9999C34.1749 24.4999 33.4999 25.1749 33.4999 25.9999C33.4999 26.8249 34.1749 27.4999 34.9999 27.4999ZM19.2649 19.2649C18.6799 18.6799 17.7349 18.6799 17.1499 19.2649C16.5649 19.8499 16.5649 20.7949 17.1499 21.3799L21.1099 25.3399C18.4549 26.7049 16.6849 29.5699 17.0599 32.8549C17.4799 36.7099 20.9449 39.4999 24.8149 39.4999H28.9999C29.8249 39.4999 30.4999 38.8249 30.4999 37.9999C30.4999 37.1749 29.8249 36.4999 28.9999 36.4999H24.6949C22.5049 36.4999 20.4949 35.0299 20.0749 32.8699C19.6099 30.4099 21.1999 28.2049 23.4049 27.6499L26.5849 30.8299C26.2399 31.1149 25.9999 31.5199 25.9999 31.9999C25.9999 32.8249 26.6749 33.4999 27.4999 33.4999H29.2549L42.6049 46.8499C43.1899 47.4349 44.1349 47.4349 44.7199 46.8499C45.3049 46.2649 45.3049 45.3199 44.7199 44.7349L19.2649 19.2649ZM34.9999 30.4999L37.5649 33.0649C37.8349 32.7949 37.9999 32.4199 37.9999 31.9999C37.9999 31.1749 37.3249 30.4999 36.4999 30.4999H34.9999Z" fill="#E85050"/>
</g>
<defs>
<clipPath id="clip0_5368_20814">
<rect width="36" height="36" fill="white" transform="translate(14 14)"/>
</clipPath>
</defs>
</svg>
