<svg width="31" height="30" viewBox="0 0 31 30" fill="none" xmlns="http://www.w3.org/2000/svg">
<path d="M30.0087 0.602021C29.8879 0.39976 29.7119 0.236042 29.5017 0.130792C29.2912 0.0252756 29.0553 -0.0177799 28.8212 0.00667356L3.28952 2.71547C2.95871 2.75109 2.65627 2.91959 2.4516 3.18271C2.24697 3.44557 2.15738 3.78072 2.20323 4.11112C2.24935 4.44175 2.42695 4.73942 2.69573 4.9361L11.6021 11.4849L13.0152 22.4631C13.055 22.7967 13.2286 23.0994 13.4961 23.3017C13.7638 23.5039 14.102 23.5876 14.4326 23.5339C14.7634 23.48 15.0579 23.2931 15.248 23.0167L29.9556 1.94143C30.0924 1.74714 30.1703 1.51724 30.1798 1.27964C30.1891 1.04176 30.13 0.806549 30.0089 0.601899L30.0087 0.602021ZM14.9985 19.0102L14.0307 11.4727L19.4933 8.24588C19.8718 8.02156 20.1024 7.61172 20.0979 7.17078C20.0934 6.72958 19.8546 6.3245 19.4715 6.10793C19.0882 5.89132 18.6191 5.8961 18.2402 6.12069L12.7776 9.34754L6.67996 4.8346L26.3867 2.74503L14.9985 19.0102ZM4.13841 16.4799C3.95392 16.2099 3.88394 15.8774 3.94411 15.5558C4.00428 15.2342 4.18957 14.9498 4.45914 14.7651C4.60758 14.6638 4.76795 14.5626 4.92832 14.4674L7.89713 12.5028C8.26505 12.2615 8.73368 12.2354 9.12624 12.4342C9.51855 12.633 9.77567 13.0269 9.80006 13.4671C9.82444 13.9075 9.61292 14.3274 9.24473 14.5687L6.19877 16.5631C6.0384 16.6582 5.93158 16.7297 5.82476 16.7954C5.62118 16.9378 5.37838 17.0128 5.13002 17.0096C4.73374 17.0037 4.36451 16.8066 4.13841 16.4799ZM3.62788 23.5941C3.73576 23.9035 3.71615 24.2432 3.57354 24.5382C3.43093 24.8332 3.17699 25.0591 2.86795 25.1657C2.73806 25.2104 2.60155 25.2324 2.46425 25.2314C2.20369 25.2364 1.94815 25.1585 1.73477 25.0086C1.52139 24.859 1.36102 24.645 1.27673 24.3979C0.678989 22.6639 0.66653 20.7814 1.24094 19.0397C1.37878 18.6206 1.7292 18.3072 2.16022 18.2174C2.59096 18.1276 3.03681 18.2751 3.32969 18.6044C3.62286 18.9337 3.71829 19.3945 3.58045 19.8137C3.16826 21.0378 3.16826 22.3638 3.58045 23.588L3.62788 23.5941ZM10.3909 28.7678V28.7675C10.3909 29.0945 10.2613 29.4078 10.031 29.6391C9.80034 29.87 9.48782 30 9.16176 30C7.54374 29.9997 5.96101 29.5258 4.60757 28.6366C4.23965 28.3952 4.02786 27.9753 4.05225 27.5349C4.0769 27.0948 4.33375 26.7009 4.72633 26.5021C5.1189 26.3033 5.58731 26.3293 5.95545 26.5709C6.90784 27.1971 8.02248 27.5304 9.16176 27.5293C9.48461 27.5341 9.79263 27.6659 10.0193 27.8966C10.2459 28.1271 10.3731 28.438 10.3729 28.7617L10.3909 28.7678Z" fill="#3FA7E1"/>
</svg>
