<svg width="26" height="30" viewBox="0 0 26 30" fill="none" xmlns="http://www.w3.org/2000/svg">
    <path d="M21.237 28.4471C19.6452 29.9868 17.8889 29.7468 16.2149 29.0208C14.4352 28.2803 12.8082 28.2334 10.9286 29.0208C8.58789 30.0278 7.3456 29.7351 5.9359 28.4471C-2.02299 20.2801 -0.848249 7.83943 8.19729 7.37107C10.3911 7.48816 11.9271 8.58002 13.2193 8.67076C15.14 8.28144 16.9785 7.16617 19.0343 7.31253C21.5042 7.51158 23.3515 8.48342 24.585 10.231C19.5042 13.2753 20.7083 19.9494 25.375 21.8228C24.4411 24.267 23.2428 26.682 21.234 28.4676L21.237 28.4471ZM13.0431 7.28326C12.8052 3.65349 15.7568 0.667723 19.1518 0.375C19.6187 4.56094 15.3339 7.69307 13.0431 7.28326Z" fill="white"/>
</svg>
