<svg width="28" height="30" viewBox="0 0 28 30" fill="none" xmlns="http://www.w3.org/2000/svg">
<path d="M27.7637 15.3164C27.7637 14.3906 27.6816 13.5117 27.541 12.6562H14.2988V17.9414H21.8809C21.541 19.6758 20.5449 21.1406 19.0684 22.1367V25.6523H23.5918C26.2402 23.2031 27.7637 19.5938 27.7637 15.3164Z" fill="#4285F4"/>
<path d="M14.2988 29.0625C18.0957 29.0625 21.2715 27.7969 23.5918 25.6523L19.0684 22.1367C17.8027 22.9805 16.1973 23.4961 14.2988 23.4961C10.6309 23.4961 7.52538 21.0234 6.4121 17.6836H1.74804V21.3047C4.05663 25.8984 8.80273 29.0625 14.2988 29.0625Z" fill="#34A853"/>
<path d="M6.4121 17.6836C6.11913 16.8398 5.96679 15.9375 5.96679 15C5.96679 14.0625 6.13085 13.1602 6.4121 12.3164V8.69531H1.74804C0.787101 10.5937 0.23632 12.7266 0.23632 15C0.23632 17.2734 0.787101 19.4062 1.74804 21.3047L6.4121 17.6836Z" fill="#FBBC05"/>
<path d="M14.2988 6.50391C16.373 6.50391 18.2246 7.21875 19.6894 8.61328L23.6973 4.60547C21.2715 2.33203 18.0957 0.9375 14.2988 0.9375C8.80273 0.9375 4.05663 4.10157 1.74804 8.69531L6.4121 12.3164C7.52539 8.97657 10.6309 6.50391 14.2988 6.50391Z" fill="#EA4335"/>
</svg>
